<svg width="131" height="42" viewBox="0 0 131 42" fill="none" xmlns="http://www.w3.org/2000/svg">
<g clip-path="url(#clip0)">
<path d="M40.7062 21.2434C40.0618 21.6133 39.2802 21.9057 38.3614 22.1205C37.4426 22.3353 36.488 22.4427 35.4976 22.4427C34.1612 22.4427 33.0216 22.2816 32.0789 21.9594C31.1482 21.6372 30.4442 21.1897 29.9669 20.617C29.5015 20.0442 29.2688 19.382 29.2688 18.6302C29.2688 17.9739 29.4478 17.3952 29.8058 16.894C30.1637 16.3928 30.6589 16.005 31.2914 15.7306C30.8021 15.48 30.4263 15.134 30.1637 14.6925C29.9132 14.239 29.7879 13.7438 29.7879 13.2068C29.7879 12.5148 30.0027 11.8823 30.4322 11.3096C30.8737 10.7368 31.542 10.2774 32.4369 9.93136C33.3318 9.58531 34.4356 9.41229 35.7482 9.41229C36.5715 9.41229 37.3829 9.48985 38.1824 9.64498C38.9819 9.8001 39.6859 10.0089 40.2945 10.2714L39.328 12.9205C38.2182 12.4312 37.0727 12.1866 35.8914 12.1866C35.0442 12.1866 34.4117 12.3 33.9941 12.5267C33.5765 12.7415 33.3676 13.0458 33.3676 13.4395C33.3676 14.1555 33.8867 14.5135 34.9248 14.5135H38.4688V17.2162H34.6922C34.0836 17.2162 33.6242 17.3176 33.3139 17.5205C33.0037 17.7114 32.8486 17.9978 32.8486 18.3796C32.8486 18.7853 33.0753 19.1015 33.5287 19.3283C33.9822 19.555 34.6862 19.6683 35.6408 19.6683C36.3209 19.6683 37.019 19.5788 37.735 19.3999C38.4628 19.2089 39.0953 18.9524 39.6322 18.6302L40.7062 21.2434Z" fill="white"/>
<path d="M49.8286 17.1088C50.9383 17.4787 51.4932 18.2424 51.4932 19.3999C51.4932 20.2709 51.1531 20.9571 50.4729 21.4582C49.7928 21.9475 48.7904 22.1921 47.4659 22.1921H42.0068V12.4909H47.2153C48.4802 12.4909 49.4587 12.7116 50.1507 13.1532C50.8548 13.5947 51.2068 14.2152 51.2068 15.0146C51.2068 15.48 51.0875 15.8917 50.8488 16.2497C50.6102 16.6076 50.2701 16.894 49.8286 17.1088ZM45.0496 16.3928H46.9111C47.6986 16.3928 48.0924 16.1005 48.0924 15.5158C48.0924 14.955 47.6986 14.6746 46.9111 14.6746H45.0496V16.3928ZM47.1616 19.9905C47.985 19.9905 48.3967 19.6922 48.3967 19.0956C48.3967 18.4989 47.9969 18.2006 47.1974 18.2006H45.0496V19.9905H47.1616Z" fill="white"/>
<path d="M57.7573 18.7376H56.6118V22.1921H53.211V12.4909H56.6118V16.0707H57.8289L60.2095 12.4909H63.8072L60.5496 17.1446L64.0219 22.1921H60.0126L57.7573 18.7376Z" fill="white"/>
<path d="M75.0296 12.4909V22.1921H71.6288V15.1936H69.1767L69.1051 16.6792C69.0573 17.9441 68.9321 18.9882 68.7292 19.8115C68.5263 20.6349 68.1922 21.2792 67.7269 21.7446C67.2615 22.198 66.6231 22.4248 65.8117 22.4248C65.394 22.4248 64.8451 22.3472 64.165 22.1921L64.3082 19.4178C64.523 19.4416 64.6662 19.4535 64.7378 19.4535C65.1077 19.4535 65.3881 19.3342 65.579 19.0956C65.7699 18.8569 65.9012 18.5407 65.9728 18.1469C66.0444 17.7412 66.0921 17.2043 66.116 16.536L66.2592 12.4909H75.0296Z" fill="white"/>
<path d="M87.3026 12.4909V22.1921H84.0629V21.1718C83.7049 21.5537 83.2754 21.846 82.7742 22.0489C82.285 22.2517 81.7599 22.3532 81.1991 22.3532C79.9343 22.3532 78.926 21.9833 78.1742 21.2434C77.4344 20.5036 77.0645 19.3939 77.0645 17.9142V12.4909H80.4653V17.3594C80.4653 18.7555 81.0082 19.4535 82.0941 19.4535C82.631 19.4535 83.0666 19.2686 83.4007 18.8987C83.7348 18.5168 83.9018 17.9381 83.9018 17.1625V12.4909H87.3026Z" fill="white"/>
<path d="M99.9132 12.4909V20.4201C99.9132 22.2219 99.424 23.5703 98.4455 24.4652C97.467 25.3721 96.059 25.8255 94.2214 25.8255C93.2668 25.8255 92.3718 25.7181 91.5365 25.5034C90.7013 25.2886 89.9913 24.9724 89.4066 24.5547L90.6416 22.1742C91.0354 22.4964 91.5306 22.7469 92.1272 22.9259C92.7358 23.1168 93.3324 23.2123 93.9171 23.2123C94.812 23.2123 95.4683 23.0154 95.886 22.6216C96.3036 22.2279 96.5124 21.6432 96.5124 20.8676V20.5454C95.8561 21.3091 94.8956 21.6909 93.6307 21.6909C92.7716 21.6909 91.978 21.5 91.2502 21.1181C90.5223 20.7244 89.9435 20.1755 89.514 19.4714C89.0844 18.7555 88.8696 17.9321 88.8696 17.0014C88.8696 16.0826 89.0844 15.2712 89.514 14.5672C89.9435 13.8512 90.5223 13.3023 91.2502 12.9205C91.978 12.5267 92.7716 12.3298 93.6307 12.3298C95.0149 12.3298 96.0291 12.7773 96.6735 13.6722V12.4909H99.9132ZM94.4361 18.9882C95.0447 18.9882 95.5459 18.8032 95.9397 18.4333C96.3454 18.0634 96.5482 17.5861 96.5482 17.0014C96.5482 16.4167 96.3513 15.9454 95.9576 15.5874C95.5638 15.2175 95.0566 15.0325 94.4361 15.0325C93.8157 15.0325 93.3026 15.2175 92.8969 15.5874C92.5031 15.9454 92.3062 16.4167 92.3062 17.0014C92.3062 17.5861 92.509 18.0634 92.9147 18.4333C93.3205 18.8032 93.8276 18.9882 94.4361 18.9882Z" fill="white"/>
<path d="M34.7865 26.9329V32.7742H33.1509V28.243H30.9312V32.7742H29.304V26.9329H34.7865Z" fill="white"/>
<path d="M38.3634 28.1762C38.8585 28.1762 39.2896 28.2708 39.6568 28.4599C40.024 28.6491 40.3049 28.9217 40.4996 29.2777C40.6999 29.6282 40.8 30.0399 40.8 30.5127C40.8 30.98 40.7082 31.3917 40.5247 31.7478C40.3411 32.0982 40.0824 32.3708 39.7486 32.5655C39.4148 32.7547 39.0282 32.8493 38.5887 32.8493C38.0713 32.8493 37.6652 32.6907 37.3704 32.3736V34.393H35.7849V30.5294C35.7849 30.0621 35.8906 29.6505 36.102 29.2944C36.3134 28.9384 36.6138 28.663 37.0032 28.4683C37.3926 28.2736 37.846 28.1762 38.3634 28.1762ZM38.2883 31.5892C38.572 31.5892 38.8001 31.4919 38.9725 31.2971C39.1506 31.0969 39.2396 30.8354 39.2396 30.5127C39.2396 30.1901 39.1506 29.9314 38.9725 29.7367C38.8001 29.5364 38.572 29.4363 38.2883 29.4363C38.0046 29.4363 37.7765 29.5364 37.604 29.7367C37.4315 29.9314 37.3453 30.1901 37.3453 30.5127C37.3453 30.841 37.4288 31.1024 37.5957 31.2971C37.7681 31.4919 37.999 31.5892 38.2883 31.5892Z" fill="white"/>
<path d="M43.7944 32.8493C43.3104 32.8493 42.8737 32.7491 42.4842 32.5489C42.0948 32.3486 41.7888 32.0704 41.5663 31.7144C41.3494 31.3583 41.2409 30.955 41.2409 30.5044C41.2409 30.0593 41.3494 29.6588 41.5663 29.3028C41.7888 28.9467 42.092 28.6713 42.4759 28.4766C42.8653 28.2764 43.3048 28.1762 43.7944 28.1762C44.2839 28.1762 44.7234 28.2764 45.1128 28.4766C45.5023 28.6713 45.8054 28.9467 46.0224 29.3028C46.2394 29.6532 46.3479 30.0538 46.3479 30.5044C46.3479 30.955 46.2394 31.3583 46.0224 31.7144C45.8054 32.0704 45.5023 32.3486 45.1128 32.5489C44.7234 32.7491 44.2839 32.8493 43.7944 32.8493ZM43.7944 31.5892C44.0725 31.5892 44.3006 31.4946 44.4786 31.3055C44.6567 31.1108 44.7457 30.8438 44.7457 30.5044C44.7457 30.1706 44.6567 29.9091 44.4786 29.72C44.3006 29.5308 44.0725 29.4363 43.7944 29.4363C43.5162 29.4363 43.2881 29.5308 43.1101 29.72C42.9321 29.9091 42.8431 30.1706 42.8431 30.5044C42.8431 30.8438 42.9321 31.1108 43.1101 31.3055C43.2881 31.4946 43.5162 31.5892 43.7944 31.5892Z" fill="white"/>
<path d="M49.4864 31.6393C49.7034 31.6393 49.8897 31.6087 50.0455 31.5475C50.2068 31.4863 50.3681 31.3862 50.5295 31.2471L51.3556 32.1149C50.9272 32.6045 50.2875 32.8493 49.4363 32.8493C48.9078 32.8493 48.4433 32.7491 48.0427 32.5489C47.6422 32.3486 47.3307 32.0704 47.1081 31.7144C46.8912 31.3583 46.7827 30.955 46.7827 30.5044C46.7827 30.0593 46.8912 29.6616 47.1081 29.3111C47.3251 28.9551 47.6227 28.6769 48.001 28.4766C48.3849 28.2764 48.8132 28.1762 49.2861 28.1762C49.7256 28.1762 50.1262 28.268 50.4878 28.4516C50.8549 28.6296 51.147 28.8939 51.364 29.2443C51.5809 29.5893 51.6894 30.0009 51.6894 30.4794L48.46 31.0969C48.6324 31.4585 48.9746 31.6393 49.4864 31.6393ZM49.2945 29.3028C49.0219 29.3028 48.7993 29.389 48.6269 29.5614C48.4544 29.7283 48.3571 29.9703 48.3348 30.2874L50.1707 29.9286C50.115 29.7395 50.0093 29.5893 49.8536 29.478C49.6978 29.3612 49.5114 29.3028 49.2945 29.3028Z" fill="white"/>
<path d="M54.565 31.1636H54.0309V32.7742H52.4454V28.2513H54.0309V29.9203H54.5984L55.7082 28.2513H57.3855L55.8668 30.4209L57.4857 32.7742H55.6164L54.565 31.1636Z" fill="white"/>
<path d="M63.9027 28.1762C64.459 28.1762 64.9013 28.3431 65.2295 28.6769C65.5633 29.0107 65.7302 29.5142 65.7302 30.1873V32.7742H64.1447V30.446C64.1447 30.1289 64.0835 29.8952 63.9611 29.745C63.8443 29.5948 63.6774 29.5197 63.4604 29.5197C63.2212 29.5197 63.0293 29.6032 62.8846 29.7701C62.74 29.937 62.6677 30.1901 62.6677 30.5294V32.7742H61.0822V30.446C61.0822 29.8285 60.8541 29.5197 60.3979 29.5197C60.1531 29.5197 59.9584 29.6032 59.8138 29.7701C59.6691 29.937 59.5968 30.1901 59.5968 30.5294V32.7742H58.0113V28.2513H59.5217V28.727C59.6886 28.5434 59.8861 28.4071 60.1142 28.3181C60.3478 28.2235 60.601 28.1762 60.8736 28.1762C61.1907 28.1762 61.4744 28.2346 61.7247 28.3515C61.9751 28.4683 62.1781 28.6463 62.3339 28.8855C62.5119 28.6574 62.7372 28.4822 63.0098 28.3598C63.2824 28.2374 63.58 28.1762 63.9027 28.1762Z" fill="white"/>
<path d="M66.6902 28.2513H68.2673V29.9286H69.8946V28.2513H71.48V32.7742H69.8946V31.1887H68.2673V32.7742H66.6902V28.2513Z" fill="white"/>
<path d="M74.7024 32.9077C73.2059 32.9077 72.4576 32.2651 72.4576 30.98V28.2513H74.0348V29.6866C74.1516 29.6087 74.3074 29.5448 74.5021 29.4947C74.7024 29.4446 74.9304 29.4196 75.1863 29.4196C75.7427 29.4196 76.1794 29.5614 76.4965 29.8452C76.8136 30.1233 76.9721 30.5378 76.9721 31.0885C76.9721 31.6838 76.7663 32.1372 76.3546 32.4487C75.9485 32.7547 75.3978 32.9077 74.7024 32.9077ZM77.3476 28.2513H78.9331V32.7742H77.3476V28.2513ZM74.7024 31.8229C74.9193 31.8229 75.0834 31.7589 75.1947 31.6309C75.306 31.503 75.3616 31.3333 75.3616 31.1219C75.3616 30.9161 75.306 30.7547 75.1947 30.6379C75.0834 30.5211 74.9221 30.4627 74.7107 30.4627C74.5605 30.4627 74.427 30.4905 74.3102 30.5461C74.1933 30.6018 74.1015 30.6769 74.0348 30.7714V31.1219C74.0348 31.3389 74.0904 31.5113 74.2017 31.6393C74.3129 31.7617 74.4798 31.8229 74.7024 31.8229Z" fill="white"/>
<path d="M82.3927 31.6393C82.6096 31.6393 82.796 31.6087 82.9518 31.5475C83.1131 31.4863 83.2744 31.3862 83.4358 31.2471L84.2619 32.1149C83.8335 32.6045 83.1938 32.8493 82.3426 32.8493C81.8141 32.8493 81.3496 32.7491 80.949 32.5489C80.5485 32.3486 80.237 32.0704 80.0144 31.7144C79.7975 31.3583 79.689 30.955 79.689 30.5044C79.689 30.0593 79.7975 29.6616 80.0144 29.3111C80.2314 28.9551 80.529 28.6769 80.9073 28.4766C81.2912 28.2764 81.7195 28.1762 82.1924 28.1762C82.6319 28.1762 83.0324 28.268 83.394 28.4516C83.7612 28.6296 84.0533 28.8939 84.2702 29.2443C84.4872 29.5893 84.5957 30.0009 84.5957 30.4794L81.3663 31.0969C81.5387 31.4585 81.8809 31.6393 82.3927 31.6393ZM82.2008 29.3028C81.9282 29.3028 81.7056 29.389 81.5332 29.5614C81.3607 29.7283 81.2634 29.9703 81.2411 30.2874L83.077 29.9286C83.0213 29.7395 82.9156 29.5893 82.7598 29.478C82.6041 29.3612 82.4177 29.3028 82.2008 29.3028Z" fill="white"/>
<path d="M90.05 32.8493C89.5493 32.8493 89.1014 32.7491 88.7065 32.5489C88.3115 32.3486 88.0027 32.0704 87.7802 31.7144C87.5632 31.3583 87.4547 30.955 87.4547 30.5044C87.4547 30.0538 87.5632 29.6532 87.7802 29.3028C88.0027 28.9467 88.3115 28.6713 88.7065 28.4766C89.1014 28.2764 89.5493 28.1762 90.05 28.1762C90.5618 28.1762 91.004 28.2875 91.3768 28.51C91.7495 28.727 92.0137 29.0302 92.1695 29.4196L90.9428 30.0454C90.737 29.6393 90.4366 29.4363 90.0416 29.4363C89.7579 29.4363 89.5215 29.5308 89.3323 29.72C89.1487 29.9091 89.0569 30.1706 89.0569 30.5044C89.0569 30.8438 89.1487 31.1108 89.3323 31.3055C89.5215 31.4946 89.7579 31.5892 90.0416 31.5892C90.4366 31.5892 90.737 31.3862 90.9428 30.98L92.1695 31.6059C92.0137 31.9953 91.7495 32.3013 91.3768 32.5238C91.004 32.7408 90.5618 32.8493 90.05 32.8493Z" fill="white"/>
<path d="M97.489 28.2513V32.7742H95.9786V32.2985C95.8117 32.4765 95.6115 32.6128 95.3778 32.7074C95.1497 32.802 94.9049 32.8493 94.6435 32.8493C94.0538 32.8493 93.5837 32.6768 93.2332 32.3319C92.8883 31.987 92.7158 31.4696 92.7158 30.7798V28.2513H94.3013V30.5211C94.3013 31.172 94.5545 31.4974 95.0607 31.4974C95.3111 31.4974 95.5141 31.4112 95.6699 31.2387C95.8256 31.0607 95.9035 30.7909 95.9035 30.4293V28.2513H97.489Z" fill="white"/>
<path d="M100.823 32.8493C100.322 32.8493 99.8746 32.7491 99.4796 32.5489C99.0846 32.3486 98.7759 32.0704 98.5534 31.7144C98.3364 31.3583 98.2279 30.955 98.2279 30.5044C98.2279 30.0538 98.3364 29.6532 98.5534 29.3028C98.7759 28.9467 99.0846 28.6713 99.4796 28.4766C99.8746 28.2764 100.322 28.1762 100.823 28.1762C101.335 28.1762 101.777 28.2875 102.15 28.51C102.523 28.727 102.787 29.0302 102.943 29.4196L101.716 30.0454C101.51 29.6393 101.21 29.4363 100.815 29.4363C100.531 29.4363 100.295 29.5308 100.105 29.72C99.9219 29.9091 99.8301 30.1706 99.8301 30.5044C99.8301 30.8438 99.9219 31.1108 100.105 31.3055C100.295 31.4946 100.531 31.5892 100.815 31.5892C101.21 31.5892 101.51 31.3862 101.716 30.98L102.943 31.6059C102.787 31.9953 102.523 32.3013 102.15 32.5238C101.777 32.7408 101.335 32.8493 100.823 32.8493Z" fill="white"/>
<path d="M109.497 28.1762C110.054 28.1762 110.496 28.3431 110.824 28.6769C111.158 29.0107 111.325 29.5142 111.325 30.1873V32.7742H109.739V30.446C109.739 30.1289 109.678 29.8952 109.556 29.745C109.439 29.5948 109.272 29.5197 109.055 29.5197C108.816 29.5197 108.624 29.6032 108.479 29.7701C108.335 29.937 108.262 30.1901 108.262 30.5294V32.7742H106.677V30.446C106.677 29.8285 106.449 29.5197 105.992 29.5197C105.748 29.5197 105.553 29.6032 105.408 29.7701C105.264 29.937 105.191 30.1901 105.191 30.5294V32.7742H103.606V28.2513H105.116V28.727C105.283 28.5434 105.481 28.4071 105.709 28.3181C105.942 28.2235 106.195 28.1762 106.468 28.1762C106.785 28.1762 107.069 28.2346 107.319 28.3515C107.57 28.4683 107.773 28.6463 107.928 28.8855C108.106 28.6574 108.332 28.4822 108.604 28.3598C108.877 28.2374 109.175 28.1762 109.497 28.1762Z" fill="white"/>
<path d="M114.68 31.6393C114.897 31.6393 115.083 31.6087 115.239 31.5475C115.4 31.4863 115.561 31.3862 115.723 31.2471L116.549 32.1149C116.12 32.6045 115.481 32.8493 114.63 32.8493C114.101 32.8493 113.637 32.7491 113.236 32.5489C112.835 32.3486 112.524 32.0704 112.301 31.7144C112.084 31.3583 111.976 30.955 111.976 30.5044C111.976 30.0593 112.084 29.6616 112.301 29.3111C112.518 28.9551 112.816 28.6769 113.194 28.4766C113.578 28.2764 114.007 28.1762 114.479 28.1762C114.919 28.1762 115.319 28.268 115.681 28.4516C116.048 28.6296 116.34 28.8939 116.557 29.2443C116.774 29.5893 116.883 30.0009 116.883 30.4794L113.653 31.0969C113.826 31.4585 114.168 31.6393 114.68 31.6393ZM114.488 29.3028C114.215 29.3028 113.993 29.389 113.82 29.5614C113.648 29.7283 113.55 29.9703 113.528 30.2874L115.364 29.9286C115.308 29.7395 115.203 29.5893 115.047 29.478C114.891 29.3612 114.705 29.3028 114.488 29.3028Z" fill="white"/>
<path d="M122.028 32.7742V30.3959L120.868 32.3736H120.192L119.066 30.3625V32.7742H117.639V28.2513H119.308L120.568 30.6129L121.953 28.2513H123.447L123.455 32.7742H122.028Z" fill="white"/>
<path d="M126.678 32.9077C125.181 32.9077 124.433 32.2651 124.433 30.98V28.2513H126.01V29.6866C126.127 29.6087 126.283 29.5448 126.477 29.4947C126.678 29.4446 126.906 29.4196 127.162 29.4196C127.718 29.4196 128.155 29.5614 128.472 29.8452C128.789 30.1233 128.947 30.5378 128.947 31.0885C128.947 31.6838 128.742 32.1372 128.33 32.4487C127.924 32.7547 127.373 32.9077 126.678 32.9077ZM129.323 28.2513H130.908V32.7742H129.323V28.2513ZM126.678 31.8229C126.895 31.8229 127.059 31.7589 127.17 31.6309C127.281 31.503 127.337 31.3333 127.337 31.1219C127.337 30.9161 127.281 30.7547 127.17 30.6379C127.059 30.5211 126.897 30.4627 126.686 30.4627C126.536 30.4627 126.402 30.4905 126.285 30.5461C126.169 30.6018 126.077 30.6769 126.01 30.7714V31.1219C126.01 31.3389 126.066 31.5113 126.177 31.6393C126.288 31.7617 126.455 31.8229 126.678 31.8229Z" fill="white"/>
<path d="M4.88498 25.0039L9.57134 14.2101H11.1435V17.2638L7.81774 25.0039H10.297V23.6131C10.297 23.2745 10.8613 23.2503 11.1435 23.2805V27.5436C10.3695 27.5436 10.2567 27.2815 10.297 27.1505V25.9411H7.36422L0.107926 42.1469H-0.164185L1.68012 36.5535C1.68012 36.5535 0.0474573 35.9186 0.591679 34.558C1.1359 33.1974 4.40123 25.9411 4.40123 25.9411H0.591679V25.0039H4.88498Z" fill="url(#paint0_linear)"/>
<path d="M17.0997 25.0039L12.4134 14.2101H10.8412V17.2638L14.167 25.0039H11.6878V23.6131C11.6878 23.2745 11.1234 23.2503 10.8412 23.2805V27.5436C11.6152 27.5436 11.7281 27.2815 11.6878 27.1505V25.9411H14.6205L21.8768 42.1469H22.1489L20.3046 36.5535C20.3046 36.5535 21.9373 35.9186 21.393 34.558C20.8488 33.1974 17.5835 25.9411 17.5835 25.9411H21.393V25.0039H17.0997Z" fill="url(#paint1_linear)"/>
<path fill-rule="evenodd" clip-rule="evenodd" d="M11.0228 12.638C12.7928 12.638 14.2277 11.2032 14.2277 9.43318C14.2277 7.66318 12.7928 6.22832 11.0228 6.22832C9.2528 6.22832 7.81793 7.66318 7.81793 9.43318C7.81793 11.2032 9.2528 12.638 11.0228 12.638ZM11.0228 14.3916C13.7613 14.3916 15.9813 12.1717 15.9813 9.43318C15.9813 6.69469 13.7613 4.47471 11.0228 4.47471C8.28431 4.47471 6.06433 6.69469 6.06433 9.43318C6.06433 12.1717 8.28431 14.3916 11.0228 14.3916Z" fill="white"/>
<path d="M10.1158 0H11.9298V4.77706H10.1158V0Z" fill="white"/>
</g>
<defs>
<linearGradient id="paint0_linear" x1="10.9924" y1="14.2101" x2="10.9924" y2="42.1469" gradientUnits="userSpaceOnUse">
<stop stop-color="#FFA948"/>
<stop offset="0.515625" stop-color="#FF6E14"/>
</linearGradient>
<linearGradient id="paint1_linear" x1="10.9924" y1="14.2101" x2="10.9924" y2="42.1469" gradientUnits="userSpaceOnUse">
<stop stop-color="#FFA948"/>
<stop offset="0.515625" stop-color="#FF6E14"/>
</linearGradient>
<clipPath id="clip0">
<rect width="131" height="42" fill="white"/>
</clipPath>
</defs>
</svg>
